<?xml version="1.0" encoding="utf-8"?>
<!-- Generator: Adobe Illustrator 19.2.0, SVG Export Plug-In . SVG Version: 6.00 Build 0)  -->
<svg version="1.1" xmlns="http://www.w3.org/2000/svg" xmlns:xlink="http://www.w3.org/1999/xlink" x="0px" y="0px"
	 viewBox="0 0 222.2 219.6" style="enable-background:new 0 0 222.2 219.6;" xml:space="preserve">
<style type="text/css">
	.st0{display:none;}
	.st1{display:inline;}
	.st2{display:inline;fill:#FFFFFF;}
	.st3{fill:#FFFFFF;}
</style>
<g id="Layer_2" class="st0">
	<rect x="-3" y="-9.3" class="st1" width="228.8" height="228.8"/>
</g>
<g id="Layer_1">
	<g transform="translate(-139 -141)">
		<g id="a" class="st0">
			<path class="st2" d="M139,141h222.2v219.6H139V141z"/>
		</g>
	</g>
	<title>BagWhite</title>
	<g>
		<path class="st3" d="M200.4,204.1c-0.4,0.1-0.8,0.1-1.2,0.1h-175c-4.8,0-8.8-3.9-8.8-8.8c0-0.4,0-0.8,0.1-1.2L30.8,84.9
			c0.6-4.3,4.3-7.5,8.7-7.5H53V98h16V77.3h84V98h17V77.3h13.8c4.4,0,8.1,3.2,8.7,7.5l15.3,109.4C208.5,199,205.1,203.5,200.4,204.1
			 M69.7,63.9c0-26.3,18.9-47.2,41.7-47.2s41.7,21,41.7,47.2V64L69.7,63.9L69.7,63.9 M222,194.2L206.4,83.1
			c-1.5-11-10.9-19.1-22-19.1h-14.8v-0.1c0-35.1-25.9-63.9-58.3-63.9S53,28.8,53,63.9V64H37.8c-11.1,0-20.5,8.2-22,19.1L0.2,194.2
			c-0.1,1-0.2,2-0.2,3.1c0,12.3,9.9,22.2,22.2,22.2l0,0H200c1,0,2.1-0.1,3.1-0.2C215.2,217.6,223.7,206.4,222,194.2
			C222,194.3,222,194.3,222,194.2"/>
	</g>
</g>
</svg>
