<svg id="Layer_1" data-name="Layer 1" xmlns="http://www.w3.org/2000/svg" viewBox="0 0 153.76 210.37"><defs><style>.cls-1{fill:#fff;}</style></defs><title>Location-White</title><path class="cls-1" d="M250.14,144.81c-42.27,0-77,32-77,71.56,0,.84.09,3.62.29,8.75a53.47,53.47,0,0,0,1.63,9.52c1.34,5,1,4.09,8.2,21.08,11.45,26,31,56.63,60.83,91.72l6.6,7.75,6.29-8c36.71-46.61,65.42-91,69-119a77.39,77.39,0,0,0,.91-11.81C327.19,176.86,292.47,144.81,250.14,144.81Zm59.33,81c-2.86,22.32-27.85,62.1-59.29,102.93-25.13-30.57-41.74-57.19-51.64-79.67-6.64-15.58-6.37-14.92-7.4-18.76A37.62,37.62,0,0,1,190,224c-.15-4.3-.24-7.15-.24-7.67,0-30.05,27-54.89,60.35-54.89s60.31,24.85,60.07,54.82A62,62,0,0,1,309.47,225.84Z" transform="translate(-173.12 -144.81)"/></svg>