<svg id="Layer_1" data-name="Layer 1" xmlns="http://www.w3.org/2000/svg" viewBox="0 0 205.56 219.33"><defs><style>.cls-1{fill:#fff;}</style></defs><title>MyAccount-White</title><path class="cls-1" d="M202.89,204.22a47.22,47.22,0,1,1,49.82,47.15c-.9,0-1.8,0-2.7,0s-1.69,0-2.53,0a47.23,47.23,0,0,1-44.59-47.15M285,257.76a63.89,63.89,0,1,0-69.77-.05c-39.68,15-68,55.07-68,102h16.67c0-49.82,37.28-90.18,83.56-91.63.88,0,1.77.07,2.67.07s1.69,0,2.53-.06c46.23,1.48,83.46,41.83,83.46,91.62h16.67c0-46.84-28.22-86.82-67.82-101.91" transform="translate(-147.22 -140.33)"/></svg>